<svg width="59" height="59" viewBox="0 0 59 59" fill="none" xmlns="http://www.w3.org/2000/svg">
<path d="M51.0645 24.9643L47.7015 14.8753C47.2136 13.4064 46.2753 12.1286 45.0197 11.2235C43.7642 10.3184 42.2553 9.83192 40.7075 9.83329H34.4167V4.91663H24.5833V9.83329H18.2925C16.7447 9.83192 15.2358 10.3184 13.9803 11.2235C12.7247 12.1286 11.7864 13.4064 11.2985 14.8753L7.9355 24.9643C7.04121 25.3385 6.2775 25.9687 5.74037 26.7758C5.20324 27.5828 4.91666 28.5305 4.91667 29.5V41.7916C4.91667 43.6059 5.90983 45.1743 7.375 46.0273V51.625C7.375 52.277 7.634 52.9022 8.09503 53.3633C8.55606 53.8243 9.18134 54.0833 9.83333 54.0833H12.2917C12.9437 54.0833 13.5689 53.8243 14.03 53.3633C14.491 52.9022 14.75 52.277 14.75 51.625V46.7083H44.25V51.625C44.25 52.277 44.509 52.9022 44.97 53.3633C45.4311 53.8243 46.0563 54.0833 46.7083 54.0833H49.1667C49.8187 54.0833 50.4439 53.8243 50.905 53.3633C51.366 52.9022 51.625 52.277 51.625 51.625V46.0273C52.3708 45.5996 52.9908 44.9829 53.4224 44.2393C53.8539 43.4956 54.0819 42.6514 54.0833 41.7916V29.5C54.0833 28.5305 53.7968 27.5828 53.2596 26.7758C52.7225 25.9687 51.9588 25.3385 51.0645 24.9643ZM18.2925 14.75H40.7051C41.7646 14.75 42.7037 15.4235 43.038 16.4315L45.757 24.5833H13.243L15.9595 16.4315C16.1226 15.9417 16.4357 15.5158 16.8545 15.214C17.2732 14.9122 17.7763 14.7498 18.2925 14.75ZM13.5208 39.3333C13.0364 39.3331 12.5568 39.2376 12.1093 39.052C11.6618 38.8665 11.2553 38.5947 10.9129 38.252C10.5705 37.9094 10.2989 37.5026 10.1137 37.055C9.92842 36.6074 9.83317 36.1277 9.83333 35.6433C9.83349 35.1589 9.92907 34.6793 10.1146 34.2318C10.3001 33.7843 10.572 33.3778 10.9146 33.0354C11.2573 32.693 11.664 32.4214 12.1116 32.2362C12.5592 32.0509 13.0389 31.9557 13.5233 31.9558C14.5016 31.9562 15.4397 32.3451 16.1313 33.0371C16.8228 33.7291 17.2111 34.6675 17.2108 35.6458C17.2105 36.6241 16.8215 37.5622 16.1295 38.2538C15.4375 38.9453 14.4991 39.3336 13.5208 39.3333ZM45.4792 39.3333C44.9948 39.3331 44.5151 39.2376 44.0676 39.052C43.6202 38.8665 43.2136 38.5947 42.8712 38.252C42.5288 37.9094 42.2572 37.5026 42.072 37.055C41.8868 36.6074 41.7915 36.1277 41.7917 35.6433C41.7918 35.1589 41.8874 34.6793 42.0729 34.2318C42.2585 33.7843 42.5303 33.3778 42.8729 33.0354C43.2156 32.693 43.6223 32.4214 44.0699 32.2362C44.5175 32.0509 44.9972 31.9557 45.4816 31.9558C46.4599 31.9562 47.3981 32.3451 48.0896 33.0371C48.7811 33.7291 49.1695 34.6675 49.1691 35.6458C49.1688 36.6241 48.7799 37.5622 48.0879 38.2538C47.3959 38.9453 46.4575 39.3336 45.4792 39.3333Z" fill="#0F2167"/>
</svg>
