<svg width="62" height="62" viewBox="0 0 62 62" fill="none" xmlns="http://www.w3.org/2000/svg">
<path d="M23.25 18.0833L25.8334 12.9166V10.3333H23.25V5.16663H38.75C39.482 5.16663 40.0959 5.41463 40.5919 5.91063C41.0879 6.40663 41.3351 7.01974 41.3334 7.74996V10.3333L38.75 15.5H31V12.9166L25.8334 18.0833H23.25ZM20.6667 56.8333V39.1375C20.6667 38.6638 20.7425 38.1584 20.894 37.621C21.0456 37.0837 21.2281 36.5989 21.4417 36.1666L31 18.0833H38.75C39.3528 18.6861 39.934 19.4938 40.4938 20.5065C41.0535 21.5191 41.3334 22.4336 41.3334 23.25V56.8333H20.6667Z" fill="#0F2167"/>
</svg>
