<svg width="67" height="67" viewBox="0 0 67 67" fill="none" xmlns="http://www.w3.org/2000/svg">
<path d="M33.5 32.1042C31.649 32.1042 29.8738 31.3689 28.565 30.0601C27.2561 28.7512 26.5208 26.976 26.5208 25.125C26.5208 23.2741 27.2561 21.4989 28.565 20.19C29.8738 18.8812 31.649 18.1459 33.5 18.1459C35.351 18.1459 37.1262 18.8812 38.435 20.19C39.7439 21.4989 40.4792 23.2741 40.4792 25.125C40.4792 26.0416 40.2987 26.9491 39.9479 27.7959C39.5972 28.6426 39.0831 29.412 38.435 30.0601C37.787 30.7081 37.0176 31.2222 36.1708 31.573C35.3241 31.9237 34.4165 32.1042 33.5 32.1042ZM33.5 5.58337C28.3172 5.58337 23.3467 7.64222 19.682 11.307C16.0172 14.9718 13.9583 19.9423 13.9583 25.125C13.9583 39.7813 33.5 61.4167 33.5 61.4167C33.5 61.4167 53.0417 39.7813 53.0417 25.125C53.0417 19.9423 50.9828 14.9718 47.3181 11.307C43.6533 7.64222 38.6828 5.58337 33.5 5.58337Z" fill="#0F2167"/>
</svg>
