<svg width="63" height="63" viewBox="0 0 63 63" fill="none" xmlns="http://www.w3.org/2000/svg">
<path d="M43.1424 35.5383C43.4431 35.8253 43.6841 36.169 43.8513 36.5496C44.0186 36.9302 44.1088 37.3401 44.1169 37.7558C44.125 38.1714 44.0507 38.5845 43.8984 38.9713C43.746 39.3581 43.5186 39.711 43.2293 40.0094C42.9399 40.3079 42.5944 40.5462 42.2125 40.7105C41.8306 40.8748 41.42 40.9619 41.0043 40.9668C40.5886 40.9716 40.1761 40.8942 39.7905 40.7388C39.4049 40.5835 39.0538 40.3534 38.7576 40.0617C38.655 39.9623 38.5477 39.8677 38.4363 39.7782C37.8397 39.3182 37.1784 38.9488 36.4738 38.682C35.0469 38.115 33.3238 37.8 31.5 37.8C28.6209 37.8 26.041 38.5906 24.5637 39.7813C24.4471 39.8758 24.34 39.9672 24.2424 40.0617C23.9462 40.3534 23.5951 40.5835 23.2095 40.7388C22.8239 40.8942 22.4114 40.9716 21.9957 40.9668C21.58 40.9619 21.1694 40.8748 20.7875 40.7105C20.4056 40.5462 20.0601 40.3079 19.7707 40.0094C19.4814 39.711 19.254 39.3581 19.1016 38.9713C18.9493 38.5845 18.875 38.1714 18.8831 37.7558C18.8911 37.3401 18.9814 36.9302 19.1487 36.5496C19.3159 36.169 19.5569 35.8253 19.8576 35.5383C20.097 35.3083 20.349 35.0847 20.6136 34.8705C23.2942 32.719 27.2664 31.5 31.5 31.5C34.105 31.5 36.6156 31.9599 38.7954 32.823C40.1499 33.3585 41.3626 34.0483 42.3864 34.8705C42.651 35.0847 42.903 35.3083 43.1424 35.5383Z" fill="#0F2167"/>
<path d="M51.0709 27.3704C51.3683 27.6638 51.6043 28.0133 51.7652 28.3988C51.9262 28.7842 52.0089 29.1978 52.0085 29.6155C52.0081 30.0331 51.9247 30.4466 51.763 30.8317C51.6014 31.2168 51.3647 31.566 51.0669 31.8588C50.7691 32.1516 50.4159 32.3823 50.0281 32.5374C49.6403 32.6925 49.2255 32.7689 48.8079 32.7622C48.3902 32.7555 47.9781 32.6658 47.5955 32.4983C47.2128 32.3308 46.8673 32.0889 46.579 31.7867C46.2668 31.4711 45.9387 31.1715 45.5962 30.8889C44.8391 30.2741 44.0308 29.725 43.1802 29.2478C42.241 28.7197 41.2589 28.2719 40.2444 27.909C39.1598 27.5126 38.0468 27.1988 36.9148 26.9703C35.7337 26.7262 34.5369 26.5651 33.3333 26.4884C31.5047 26.3683 29.6688 26.4295 27.8523 26.6711C26.6802 26.8296 25.5203 27.0686 24.381 27.3861C23.3044 27.691 22.2516 28.0742 21.231 28.5327C20.2955 28.9607 19.3959 29.4632 18.5409 30.0353C18.1487 30.3008 17.7692 30.5846 17.4037 30.8858C17.0611 31.1693 16.7331 31.47 16.4209 31.7867C16.1347 32.0964 15.7891 32.3455 15.4048 32.5192C15.0205 32.6929 14.6052 32.7876 14.1835 32.7978C13.7619 32.8079 13.3425 32.7333 12.9503 32.5784C12.558 32.4234 12.2009 32.1912 11.9 31.8957C11.5992 31.6001 11.3608 31.2471 11.1989 30.8577C11.037 30.4682 10.955 30.0502 10.9577 29.6285C10.9604 29.2067 11.0478 28.7898 11.2146 28.4025C11.3815 28.0151 11.6244 27.6652 11.929 27.3735C12.3858 26.9105 12.8709 26.4663 13.3843 26.0379C14.9798 24.7343 16.74 23.6466 18.6196 22.8029C19.9291 22.205 21.2836 21.711 22.6705 21.3255C24.0951 20.9233 25.5468 20.6244 27.0144 20.4309C28.501 20.2288 29.9997 20.1278 31.5 20.1285C33.0002 20.1294 34.4986 20.2293 35.9856 20.4278C37.4535 20.6253 38.906 20.9242 40.3326 21.3224C41.7163 21.7147 43.0692 22.2085 44.3803 22.7997C45.6407 23.3756 46.8522 24.053 48.0028 24.8252C49.1063 25.5713 50.1339 26.4237 51.0709 27.3704Z" fill="#0F2167"/>
<path d="M57.4717 19.5993C58.0018 20.2256 58.2666 21.0339 58.2098 21.8524C58.153 22.6709 57.7791 23.435 57.1676 23.982C56.5562 24.5291 55.7554 24.8159 54.9356 24.7816C54.1159 24.7473 53.3419 24.3945 52.7782 23.7983C52.3244 23.2922 51.8449 22.8096 51.3418 22.3524C50.8179 21.8749 50.2712 21.4229 49.7038 20.9979C48.4975 20.1059 47.2171 19.3187 45.8766 18.6449C44.4508 17.9298 42.9671 17.3365 41.4414 16.8714C39.8537 16.3772 38.2296 16.0086 36.5841 15.7689C34.9008 15.5208 33.2014 15.3987 31.5 15.4035C29.7986 15.4034 28.0995 15.5265 26.4159 15.7721C24.7714 16.0169 23.1477 16.3855 21.5586 16.8746C20.0366 17.3487 18.5546 17.9427 17.1265 18.6512C16.444 18.9927 15.7766 19.3637 15.1263 19.7631C14.4988 20.1478 13.8892 20.5609 13.2993 21.0011C12.7319 21.426 12.1852 21.878 11.6613 22.3556C11.157 22.8137 10.6765 23.2973 10.2217 23.8046C9.66215 24.418 8.88295 24.7858 8.05364 24.8277C7.22433 24.8697 6.41199 24.5825 5.79334 24.0286C5.17469 23.4747 4.79976 22.699 4.75012 21.8701C4.70047 21.0412 4.98013 20.2262 5.52825 19.6025C6.73815 18.2608 8.07587 17.0402 9.52245 15.9579C11.8024 14.2674 14.293 12.8812 16.9312 11.8346C18.7554 11.1021 20.6357 10.5185 22.554 10.0895C24.5059 9.64616 26.4888 9.35236 28.4854 9.21061C31.4957 8.99243 34.5208 9.10334 37.507 9.54136C39.4716 9.83327 41.4112 10.2734 43.3093 10.8581C45.1595 11.4339 46.9607 12.1565 48.6958 13.019C50.3712 13.8594 51.971 14.8427 53.4775 15.9579C54.929 17.0354 56.2683 18.2564 57.4749 19.6025M37.8 48.0375C37.8 49.7084 37.1362 51.3108 35.9548 52.4923C34.7733 53.6738 33.1709 54.3375 31.5 54.3375C29.8291 54.3375 28.2267 53.6738 27.0452 52.4923C25.8637 51.3108 25.2 49.7084 25.2 48.0375C25.2 46.3666 25.8637 44.7642 27.0452 43.5827C28.2267 42.4013 29.8291 41.7375 31.5 41.7375C33.1709 41.7375 34.7733 42.4013 35.9548 43.5827C37.1362 44.7642 37.8 46.3666 37.8 48.0375Z" fill="#0F2167"/>
</svg>
